<svg width="729" height="209" viewBox="0 0 729 209" fill="none" xmlns="http://www.w3.org/2000/svg">
<path d="M28 53.5H185C196.322 53.5 205.5 62.6782 205.5 74V175C205.5 186.322 196.322 195.5 185 195.5H28C16.6782 195.5 7.5 186.322 7.5 175V74C7.5 62.6782 16.6782 53.5 28 53.5Z" stroke="#9FF560" stroke-width="15"/>
<path d="M62 8L106 51" stroke="#9FF560" stroke-width="15" stroke-linecap="round"/>
<path d="M106.999 50.9994L151.001 8.00056" stroke="#9FF560" stroke-width="15" stroke-linecap="round"/>
<path d="M275.266 105C271.906 105 270.226 103.32 270.226 99.96V49.2C270.226 45.84 271.906 44.16 275.266 44.16C278.626 44.16 280.306 45.84 280.306 49.2V53.88C282.666 50.68 285.666 48.26 289.306 46.62C292.986 44.98 297.186 44.16 301.906 44.16C305.266 44.16 306.946 45.84 306.946 49.2C306.946 52.56 305.266 54.24 301.906 54.24C294.986 54.24 289.706 55.52 286.066 58.08C282.426 60.64 280.506 64.02 280.306 68.22V99.96C280.306 103.32 278.626 105 275.266 105ZM336.524 105C329.804 105 324.804 103.36 321.524 100.08C318.244 96.8 316.604 91.8 316.604 85.08C316.604 78.36 318.224 73.36 321.464 70.08C324.744 66.8 329.764 65.16 336.524 65.16H361.904C361.664 60.96 360.564 58.1 358.604 56.58C356.644 55.02 353.284 54.24 348.524 54.24H341.564C337.564 54.24 334.584 54.52 332.624 55.08C330.664 55.6 329.284 56.56 328.484 57.96C327.764 59.64 327.024 60.8 326.264 61.44C325.504 62.08 324.364 62.4 322.844 62.4C321.164 62.4 319.844 61.94 318.884 61.02C317.924 60.06 317.644 58.8 318.044 57.24C319.244 52.72 321.744 49.42 325.544 47.34C329.384 45.22 334.724 44.16 341.564 44.16H348.524C356.524 44.16 362.444 46.08 366.284 49.92C370.124 53.76 372.044 59.68 372.044 67.68V99.96C372.044 103.32 370.364 105 367.004 105C363.644 105 361.964 103.32 361.964 99.96V97.26C357.684 102.42 351.444 105 343.244 105H336.524ZM336.524 94.92H343.244C346.204 94.92 348.984 94.66 351.584 94.14C354.184 93.58 356.404 92.58 358.244 91.14C360.124 89.7 361.364 87.64 361.964 84.96V75.24H336.524C332.564 75.24 329.924 75.9 328.604 77.22C327.324 78.54 326.684 81.16 326.684 85.08C326.684 89.04 327.324 91.68 328.604 93C329.924 94.28 332.564 94.92 336.524 94.92ZM400.891 105C397.531 105 395.851 103.32 395.851 99.96V49.2C395.851 45.84 397.531 44.16 400.891 44.16C404.251 44.16 405.931 45.84 405.931 49.2V51.18C410.171 46.5 416.411 44.16 424.651 44.16H428.011C436.011 44.16 441.931 46.08 445.771 49.92C449.611 53.76 451.531 59.68 451.531 67.68V99.96C451.531 103.32 449.851 105 446.491 105C443.131 105 441.451 103.32 441.451 99.96V67.68C441.451 62.44 440.491 58.9 438.571 57.06C436.691 55.18 433.171 54.24 428.011 54.24H424.651C419.851 54.24 415.671 54.8 412.111 55.92C408.551 57 406.491 58.72 405.931 61.08V99.96C405.931 103.32 404.251 105 400.891 105ZM495.944 105C487.984 105 482.064 103.08 478.184 99.24C474.344 95.36 472.424 89.44 472.424 81.48V67.68C472.424 59.68 474.344 53.76 478.184 49.92C482.064 46.08 487.984 44.16 495.944 44.16H519.224V25.56C519.224 22.2 520.904 20.52 524.264 20.52C527.624 20.52 529.304 22.2 529.304 25.56V99.96C529.304 103.32 527.624 105 524.264 105C520.904 105 519.224 103.32 519.224 99.96V99.12C517.344 101.04 514.884 102.5 511.844 103.5C508.804 104.5 505.024 105 500.504 105H495.944ZM495.944 94.92H500.504C505.784 94.92 510.224 94.24 513.824 92.88C517.424 91.52 519.224 89.44 519.224 86.64V54.24H495.944C490.744 54.24 487.204 55.2 485.324 57.12C483.444 59 482.504 62.52 482.504 67.68V81.48C482.504 86.68 483.444 90.22 485.324 92.1C487.244 93.98 490.784 94.92 495.944 94.92ZM573.757 105C565.797 105 559.877 103.08 555.997 99.24C552.157 95.4 550.237 89.52 550.237 81.6V67.68C550.237 59.64 552.157 53.72 555.997 49.92C559.877 46.08 565.797 44.16 573.757 44.16H583.597C591.597 44.16 597.517 46.08 601.357 49.92C605.197 53.76 607.117 59.68 607.117 67.68V81.48C607.117 89.44 605.197 95.36 601.357 99.24C597.517 103.08 591.597 105 583.597 105H573.757ZM560.317 81.6C560.317 86.76 561.257 90.28 563.137 92.16C565.017 94 568.557 94.92 573.757 94.92H583.597C588.837 94.92 592.377 93.98 594.217 92.1C596.097 90.22 597.037 86.68 597.037 81.48V67.68C597.037 62.44 596.097 58.9 594.217 57.06C592.377 55.18 588.837 54.24 583.597 54.24H573.757C570.277 54.24 567.557 54.64 565.597 55.44C563.677 56.2 562.317 57.56 561.517 59.52C560.717 61.44 560.317 64.16 560.317 67.68V81.6ZM695.771 44.16C703.331 44.16 708.751 45.94 712.031 49.5C715.351 53.06 717.011 58.96 717.011 67.2V99.96C717.011 103.32 715.331 105 711.971 105C708.611 105 706.931 103.32 706.931 99.96V67.2C706.931 62.64 706.051 59.34 704.291 57.3C702.571 55.26 699.731 54.24 695.771 54.24H690.851C686.291 54.24 683.031 55.26 681.071 57.3C679.111 59.34 678.131 62.64 678.131 67.2V99.96C678.131 103.32 676.451 105 673.091 105C669.731 105 668.051 103.32 668.051 99.96V67.2C668.051 62.64 667.171 59.34 665.411 57.3C663.691 55.26 660.851 54.24 656.891 54.24H651.971C647.411 54.24 644.151 55.26 642.191 57.3C640.231 59.34 639.251 62.64 639.251 67.2V99.96C639.251 103.32 637.571 105 634.211 105C630.851 105 629.171 103.32 629.171 99.96V49.2C629.171 45.84 630.851 44.16 634.211 44.16C637.571 44.16 639.251 45.84 639.251 49.2V51.96C641.371 49.2 643.691 47.22 646.211 46.02C648.771 44.78 651.811 44.16 655.331 44.16H656.891C661.851 44.16 665.751 44.86 668.591 46.26C671.431 47.62 673.591 49.84 675.071 52.92C677.191 49.76 679.431 47.52 681.791 46.2C684.191 44.84 687.211 44.16 690.851 44.16H695.771ZM291.703 205C284.521 205 278.914 203.551 274.882 200.653C270.892 197.755 268.393 193.282 267.385 187.234C267.217 185.386 267.595 184 268.519 183.076C269.443 182.152 270.787 181.69 272.551 181.69C274.315 181.69 275.596 182.11 276.394 182.95C277.234 183.79 277.801 185.092 278.095 186.856C278.725 189.754 280.069 191.749 282.127 192.841C284.227 193.891 287.419 194.416 291.703 194.416H309.847C315.265 194.416 318.94 193.45 320.872 191.518C322.846 189.544 323.833 185.89 323.833 180.556C323.833 175.138 322.825 171.442 320.809 169.468C318.793 167.452 315.139 166.444 309.847 166.444H294.223C286.285 166.444 280.384 164.512 276.52 160.648C272.698 156.742 270.787 150.82 270.787 142.882C270.787 134.986 272.677 129.127 276.457 125.305C280.279 121.483 286.159 119.572 294.097 119.572H309.091C315.769 119.572 320.998 120.937 324.778 123.667C328.6 126.397 331.015 130.576 332.023 136.204C332.275 138.01 331.939 139.396 331.015 140.362C330.091 141.286 328.705 141.748 326.857 141.748C325.177 141.748 323.917 141.307 323.077 140.425C322.237 139.543 321.691 138.262 321.439 136.582C320.767 134.104 319.486 132.424 317.596 131.542C315.706 130.618 312.871 130.156 309.091 130.156H294.097C289.057 130.156 285.676 131.059 283.954 132.865C282.232 134.629 281.371 137.968 281.371 142.882C281.371 147.838 282.253 151.24 284.017 153.088C285.781 154.936 289.183 155.86 294.223 155.86H309.847C318.121 155.86 324.274 157.876 328.306 161.908C332.38 165.94 334.417 172.156 334.417 180.556C334.417 188.914 332.401 195.088 328.369 199.078C324.337 203.026 318.163 205 309.847 205H291.703ZM362.878 205C361.492 205 360.253 204.475 359.161 203.425C358.111 202.333 357.586 201.094 357.586 199.708V124.864C357.586 123.478 358.111 122.26 359.161 121.21C360.253 120.118 361.492 119.572 362.878 119.572C364.264 119.572 365.482 120.118 366.532 121.21C367.624 122.26 368.17 123.478 368.17 124.864V156.49H419.578V124.864C419.578 123.478 420.103 122.26 421.153 121.21C422.203 120.118 423.442 119.572 424.87 119.572C426.256 119.572 427.474 120.118 428.524 121.21C429.616 122.26 430.162 123.478 430.162 124.864V199.708C430.162 201.094 429.616 202.333 428.524 203.425C427.474 204.475 426.256 205 424.87 205C423.442 205 422.203 204.475 421.153 203.425C420.103 202.333 419.578 201.094 419.578 199.708V167.074H368.17V199.708C368.17 201.094 367.624 202.333 366.532 203.425C365.482 204.475 364.264 205 362.878 205ZM481.593 205C471.975 205 464.856 202.711 460.236 198.133C455.658 193.513 453.369 186.394 453.369 176.776V147.67C453.369 137.968 455.679 130.849 460.299 126.313C464.919 121.735 472.017 119.488 481.593 119.572H496.713C506.373 119.572 513.492 121.861 518.07 126.439C522.648 131.017 524.937 138.136 524.937 147.796V176.776C524.937 186.394 522.648 193.513 518.07 198.133C513.492 202.711 506.373 205 496.713 205H481.593ZM481.593 194.416H496.713C501.207 194.416 504.735 193.891 507.297 192.841C509.859 191.749 511.665 189.922 512.715 187.36C513.807 184.798 514.353 181.27 514.353 176.776V147.796C514.353 143.344 513.807 139.837 512.715 137.275C511.665 134.713 509.859 132.886 507.297 131.794C504.735 130.702 501.207 130.156 496.713 130.156H481.593C477.141 130.114 473.634 130.618 471.072 131.668C468.51 132.718 466.683 134.524 465.591 137.086C464.499 139.648 463.953 143.176 463.953 147.67V176.776C463.953 181.27 464.478 184.798 465.528 187.36C466.62 189.922 468.447 191.749 471.009 192.841C473.571 193.891 477.099 194.416 481.593 194.416ZM563.935 205C561.625 205 559.987 203.488 559.021 200.464L535.711 126.628C535.207 125.032 535.438 123.436 536.404 121.84C537.412 120.244 538.861 119.446 540.751 119.446C541.759 119.446 542.725 119.782 543.649 120.454C544.573 121.084 545.245 122.092 545.665 123.478L566.203 188.872H563.431L582.961 124.108C583.423 122.596 584.2 121.462 585.292 120.706C586.426 119.95 587.581 119.572 588.757 119.572C590.017 119.572 591.235 119.95 592.411 120.706C593.587 121.462 594.385 122.596 594.805 124.108L614.335 188.872H611.563L632.101 123.478C632.563 122.092 633.214 121.105 634.054 120.517C634.936 119.887 635.881 119.572 636.889 119.572C638.737 119.572 640.207 120.286 641.299 121.714C642.391 123.142 642.643 124.78 642.055 126.628L618.745 200.464C617.737 203.488 615.889 205 613.201 205H612.949C610.135 205 608.287 203.488 607.405 200.464L587.119 134.818H589.891L569.479 200.464C569.059 201.976 568.429 203.11 567.589 203.866C566.791 204.622 565.573 205 563.935 205ZM675.979 205C668.797 205 663.19 203.551 659.158 200.653C655.168 197.755 652.669 193.282 651.661 187.234C651.493 185.386 651.871 184 652.795 183.076C653.719 182.152 655.063 181.69 656.827 181.69C658.591 181.69 659.872 182.11 660.67 182.95C661.51 183.79 662.077 185.092 662.371 186.856C663.001 189.754 664.345 191.749 666.403 192.841C668.503 193.891 671.695 194.416 675.979 194.416H694.123C699.541 194.416 703.216 193.45 705.148 191.518C707.122 189.544 708.109 185.89 708.109 180.556C708.109 175.138 707.101 171.442 705.085 169.468C703.069 167.452 699.415 166.444 694.123 166.444H678.499C670.561 166.444 664.66 164.512 660.796 160.648C656.974 156.742 655.063 150.82 655.063 142.882C655.063 134.986 656.953 129.127 660.733 125.305C664.555 121.483 670.435 119.572 678.373 119.572H693.367C700.045 119.572 705.274 120.937 709.054 123.667C712.876 126.397 715.291 130.576 716.299 136.204C716.551 138.01 716.215 139.396 715.291 140.362C714.367 141.286 712.981 141.748 711.133 141.748C709.453 141.748 708.193 141.307 707.353 140.425C706.513 139.543 705.967 138.262 705.715 136.582C705.043 134.104 703.762 132.424 701.872 131.542C699.982 130.618 697.147 130.156 693.367 130.156H678.373C673.333 130.156 669.952 131.059 668.23 132.865C666.508 134.629 665.647 137.968 665.647 142.882C665.647 147.838 666.529 151.24 668.293 153.088C670.057 154.936 673.459 155.86 678.499 155.86H694.123C702.397 155.86 708.55 157.876 712.582 161.908C716.656 165.94 718.693 172.156 718.693 180.556C718.693 188.914 716.677 195.088 712.645 199.078C708.613 203.026 702.439 205 694.123 205H675.979Z" fill="#9FF560"/>
</svg>
